HIERARCHY
ROOT Hips
{
	OFFSET 0.000000 100.481300 0.000000
	CHANNELS 6 Xposition Yposition Zposition Xrotation Yrotation Zrotation 
	JOINT Spine
	{
		OFFSET -0.279200 12.230698 -2.892100
		CHANNELS 3 Xrotation Yrotation Zrotation
		JOINT Spine1
		{
			OFFSET -0.232667 10.192268 -1.242267
			CHANNELS 3 Xrotation Yrotation Zrotation
			JOINT Spine1_split
			{
				OFFSET -0.232667 10.192268 -1.242267
				CHANNELS 3 Xrotation Yrotation Zrotation
				JOINT Spine2
				{
					OFFSET -0.232667 10.192268 -1.242267
					CHANNELS 3 Xrotation Yrotation Zrotation
					JOINT Neck
					{
						OFFSET -0.418800 17.814194 8.416900
						CHANNELS 3 Xrotation Yrotation Zrotation
						JOINT Head
						{
							OFFSET 0.000000 7.031097 3.806800
							CHANNELS 3 Xrotation Yrotation Zrotation
							JOINT HeadTop_End
							{
								OFFSET 0.000000 24.646606 12.978600
								CHANNELS 3 Xrotation Yrotation Zrotation
								End Site
								{
									OFFSET 0.000000 0.000000 0.000000
								}
							}
						}
					}
					JOINT LeftShoulder
					{
						OFFSET 8.476499 7.247704 -3.868750
						CHANNELS 3 Xrotation Yrotation Zrotation
						JOINT LeftShoulder_split
						{
							OFFSET 8.476499 7.247704 -3.868750
							CHANNELS 3 Xrotation Yrotation Zrotation
							JOINT LeftArm
							{
								OFFSET 9.308998 -2.777710 0.208600
								CHANNELS 3 Xrotation Yrotation Zrotation
								JOINT LeftForeArm
								{
									OFFSET 29.972298 0.000000 0.000000
									CHANNELS 3 Xrotation Yrotation Zrotation
									JOINT LeftHand
									{
										OFFSET 26.026505 0.000000 0.000000
										CHANNELS 3 Xrotation Yrotation Zrotation
										JOINT LeftHandThumb1
										{
											OFFSET 12.240501 -7.147949 9.207150
											CHANNELS 3 Xrotation Yrotation Zrotation
											JOINT LeftHandThumb2
											{
												OFFSET 4.138618 -2.389435 2.389433
												CHANNELS 3 Xrotation Yrotation Zrotation
												JOINT LeftHandThumb3
												{
													OFFSET 2.726913 -1.574387 1.574386
													CHANNELS 3 Xrotation Yrotation Zrotation
													JOINT LeftHandThumb4
													{
														OFFSET 3.941010 -2.275345 2.275342
														CHANNELS 3 Xrotation Yrotation Zrotation
														End Site
														{
															OFFSET 0.000000 0.000000 0.000000
														}
													}
												}
											}
										}
										JOINT LeftHandIndex1
										{
											OFFSET 24.424698 -1.985611 5.953459
											CHANNELS 3 Xrotation Yrotation Zrotation
											JOINT LeftHandIndex2
											{
												OFFSET 6.426697 0.000000 0.000000
												CHANNELS 3 Xrotation Yrotation Zrotation
												JOINT LeftHandIndex3
												{
													OFFSET 5.337898 0.000000 0.000000
													CHANNELS 3 Xrotation Yrotation Zrotation
													JOINT LeftHandIndex4
													{
														OFFSET 4.409401 0.000000 0.000000
														CHANNELS 3 Xrotation Yrotation Zrotation
														End Site
														{
															OFFSET 0.000000 0.000000 0.000000
														}
													}
												}
											}
										}
										JOINT LeftHandMiddle1
										{
											OFFSET 23.810104 0.000000 0.000000
											CHANNELS 3 Xrotation Yrotation Zrotation
											JOINT LeftHandMiddle2
											{
												OFFSET 7.176498 0.000000 0.000000
												CHANNELS 3 Xrotation Yrotation Zrotation
												JOINT LeftHandMiddle3
												{
													OFFSET 6.774902 0.000000 0.000000
													CHANNELS 3 Xrotation Yrotation Zrotation
													JOINT LeftHandMiddle4
													{
														OFFSET 5.403328 0.000000 0.000000
														CHANNELS 3 Xrotation Yrotation Zrotation
														End Site
														{
															OFFSET 0.000000 0.000000 0.000000
														}
													}
												}
											}
										}
										JOINT LeftHandRing1
										{
											OFFSET 22.908401 -0.839279 -6.020567
											CHANNELS 3 Xrotation Yrotation Zrotation
											JOINT LeftHandRing2
											{
												OFFSET 6.337502 0.000000 0.000000
												CHANNELS 3 Xrotation Yrotation Zrotation
												JOINT LeftHandRing3
												{
													OFFSET 5.779297 0.000000 0.000000
													CHANNELS 3 Xrotation Yrotation Zrotation
													JOINT LeftHandRing4
													{
														OFFSET 4.965698 0.000000 0.000000
														CHANNELS 3 Xrotation Yrotation Zrotation
														End Site
														{
															OFFSET 0.000000 0.000000 0.000000
														}
													}
												}
											}
										}
										JOINT LeftHandPinky1
										{
											OFFSET 20.037003 -1.530319 -10.950146
											CHANNELS 3 Xrotation Yrotation Zrotation
											JOINT LeftHandPinky2
											{
												OFFSET 5.254700 0.000000 0.000000
												CHANNELS 3 Xrotation Yrotation Zrotation
												JOINT LeftHandPinky3
												{
													OFFSET 4.810204 0.000000 0.000000
													CHANNELS 3 Xrotation Yrotation Zrotation
													JOINT LeftHandPinky4
													{
														OFFSET 3.647202 0.000000 0.000000
														CHANNELS 3 Xrotation Yrotation Zrotation
														End Site
														{
															OFFSET 0.000000 0.000000 0.000000
														}
													}
												}
											}
										}
									}
								}
							}
						}
					}
					JOINT RightShoulder
					{
						OFFSET -7.570500 7.247704 -3.868750
						CHANNELS 3 Xrotation Yrotation Zrotation
						JOINT RightShoulder_split
						{
							OFFSET -7.570500 7.247704 -3.868750
							CHANNELS 3 Xrotation Yrotation Zrotation
							JOINT RightArm
							{
								OFFSET -9.308998 -2.777710 0.208500
								CHANNELS 3 Xrotation Yrotation Zrotation
								JOINT RightForeArm
								{
									OFFSET -29.972300 0.000000 0.000000
									CHANNELS 3 Xrotation Yrotation Zrotation
									JOINT RightHand
									{
										OFFSET -26.026505 0.000000 0.000000
										CHANNELS 3 Xrotation Yrotation Zrotation
										JOINT RightHandThumb1
										{
											OFFSET -12.240601 -7.148026 9.207092
											CHANNELS 3 Xrotation Yrotation Zrotation
											JOINT RightHandThumb2
											{
												OFFSET -4.138618 -2.389435 2.389433
												CHANNELS 3 Xrotation Yrotation Zrotation
												JOINT RightHandThumb3
												{
													OFFSET -2.726974 -1.574417 1.574421
													CHANNELS 3 Xrotation Yrotation Zrotation
													JOINT RightHandThumb4
													{
														OFFSET -3.941010 -2.275345 2.275343
														CHANNELS 3 Xrotation Yrotation Zrotation
														End Site
														{
															OFFSET 0.000000 0.000000 0.000000
														}
													}
												}
											}
										}
										JOINT RightHandIndex1
										{
											OFFSET -24.424698 -1.985657 5.953444
											CHANNELS 3 Xrotation Yrotation Zrotation
											JOINT RightHandIndex2
											{
												OFFSET -6.426697 0.000000 0.000000
												CHANNELS 3 Xrotation Yrotation Zrotation
												JOINT RightHandIndex3
												{
													OFFSET -5.337898 0.000000 0.000000
													CHANNELS 3 Xrotation Yrotation Zrotation
													JOINT RightHandIndex4
													{
														OFFSET -4.409401 0.000000 0.000000
														CHANNELS 3 Xrotation Yrotation Zrotation
														End Site
														{
															OFFSET 0.000000 0.000000 0.000000
														}
													}
												}
											}
										}
										JOINT RightHandMiddle1
										{
											OFFSET -23.810097 0.000000 0.000000
											CHANNELS 3 Xrotation Yrotation Zrotation
											JOINT RightHandMiddle2
											{
												OFFSET -7.176498 0.000000 0.000000
												CHANNELS 3 Xrotation Yrotation Zrotation
												JOINT RightHandMiddle3
												{
													OFFSET -6.774902 0.000000 0.000000
													CHANNELS 3 Xrotation Yrotation Zrotation
													JOINT RightHandMiddle4
													{
														OFFSET -5.403328 0.000000 0.000000
														CHANNELS 3 Xrotation Yrotation Zrotation
														End Site
														{
															OFFSET 0.000000 0.000000 0.000000
														}
													}
												}
											}
										}
										JOINT RightHandRing1
										{
											OFFSET -22.908302 -0.839325 -6.020576
											CHANNELS 3 Xrotation Yrotation Zrotation
											JOINT RightHandRing2
											{
												OFFSET -6.337502 0.000000 0.000000
												CHANNELS 3 Xrotation Yrotation Zrotation
												JOINT RightHandRing3
												{
													OFFSET -5.779297 0.000000 0.000000
													CHANNELS 3 Xrotation Yrotation Zrotation
													JOINT RightHandRing4
													{
														OFFSET -4.965698 0.000000 0.000000
														CHANNELS 3 Xrotation Yrotation Zrotation
														End Site
														{
															OFFSET 0.000000 0.000000 0.000000
														}
													}
												}
											}
										}
										JOINT RightHandPinky1
										{
											OFFSET -20.037003 -1.530334 -10.950259
											CHANNELS 3 Xrotation Yrotation Zrotation
											JOINT RightHandPinky2
											{
												OFFSET -5.254700 0.000000 0.000000
												CHANNELS 3 Xrotation Yrotation Zrotation
												JOINT RightHandPinky3
												{
													OFFSET -4.810204 0.000000 0.000000
													CHANNELS 3 Xrotation Yrotation Zrotation
													JOINT RightHandPinky4
													{
														OFFSET -3.647202 0.000000 0.000000
														CHANNELS 3 Xrotation Yrotation Zrotation
														End Site
														{
															OFFSET 0.000000 0.000000 0.000000
														}
													}
												}
											}
										}
									}
								}
							}
						}
					}
				}
			}
		}
	}
	JOINT LeftUpLeg
	{
		OFFSET 15.427100 -6.655098 0.678600
		CHANNELS 3 Xrotation Yrotation Zrotation
		JOINT LeftLeg
		{
			OFFSET 4.081073 -39.591068 13.024000
			CHANNELS 3 Xrotation Yrotation Zrotation
			JOINT LeftFoot
			{
				OFFSET -4.081074 -37.707932 -15.979700
				CHANNELS 3 Xrotation Yrotation Zrotation
				JOINT LeftToeBase
				{
					OFFSET 5.346399 -15.068900 20.645000
					CHANNELS 3 Xrotation Yrotation Zrotation
					JOINT LeftToe_End
					{
						OFFSET 2.754700 0.931300 11.300900
						CHANNELS 3 Xrotation Yrotation Zrotation
						End Site
						{
							OFFSET 0.000000 0.000000 0.000000
						}
					}
				}
			}
		}
	}
	JOINT RightUpLeg
	{
		OFFSET -15.569500 -6.655098 0.678600
		CHANNELS 3 Xrotation Yrotation Zrotation
		JOINT RightLeg
		{
			OFFSET -4.081825 -39.591045 13.023800
			CHANNELS 3 Xrotation Yrotation Zrotation
			JOINT RightFoot
			{
				OFFSET 4.081824 -37.707954 -15.979600
				CHANNELS 3 Xrotation Yrotation Zrotation
				JOINT RightToeBase
				{
					OFFSET -5.346400 -15.068900 20.645000
					CHANNELS 3 Xrotation Yrotation Zrotation
					JOINT RightToe_End
					{
						OFFSET -2.754700 0.931300 11.300900
						CHANNELS 3 Xrotation Yrotation Zrotation
						End Site
						{
							OFFSET 0.000000 0.000000 0.000000
						}
					}
				}
			}
		}
	}
}
MOTION
Frames: 4
Frame Time: 0.016667
1.027240 96.176544 -2.170734 2.912721 -28.996735 0.976691 7.837252 -0.327289 -2.470953 1.099251 -0.880529 2.383668 0.000000 0.000000 0.000000 1.108685 -0.590416 2.446527 -3.841327 18.019009 -6.496517 -6.333201 13.021595 0.301390 -0.000000 -0.000000 0.000000 -0.055835 -8.758002 -0.067357 0.000000 0.000000 0.000000 -55.250811 0.329436 -41.449379 11.606982 -65.826030 13.026170 -50.191044 12.352940 4.610860 17.563616 -5.694012 -12.929222 10.852337 26.148379 8.654090 20.924892 51.116425 0.219807 -0.000001 0.000002 -0.000000 13.978247 1.203592 -55.006034 0.372688 1.163877 -65.441873 1.986567 2.154425 -57.665129 0.000000 -0.000000 0.000000 7.502550 1.175423 -63.755267 1.809504 1.478258 -64.569856 0.130996 -0.903799 -43.270785 0.000000 -0.000001 -0.000000 8.574326 2.179116 -75.149006 -0.208029 1.014712 -57.856804 0.433175 1.760594 -53.580891 0.000000 -0.000001 0.000002 10.030071 13.637032 -84.750244 0.878843 0.065139 -64.595496 1.137600 1.262743 -55.016200 0.000000 0.000000 -0.000001 4.849285 7.760133 5.560454 0.000000 0.000000 0.000000 -0.933522 -2.176865 61.845628 11.299285 18.943465 -3.987560 -0.459212 6.620139 5.830250 15.788506 -2.734469 -17.205885 -2.198310 -31.113540 7.361207 -6.563759 -4.145951 2.404847 0.000000 -0.000002 -0.000001 2.371239 -3.658863 8.486753 -2.131703 -2.469821 18.672197 -1.937595 -4.791119 14.170608 0.000000 -0.000000 0.000000 -1.983662 -5.667156 13.658567 0.267054 -5.081397 26.987179 -0.669521 -1.182124 16.124805 0.000000 -0.000000 0.000000 -3.231403 -8.564186 11.751498 4.036742 -4.043070 33.257154 2.103019 -3.154942 15.587810 -0.000001 -0.000001 0.000001 -6.483211 -11.360888 23.256436 10.728494 -2.555677 34.821261 6.410098 -3.094546 15.311551 0.000000 -0.000000 0.000002 -13.772411 18.268900 13.064420 14.396601 11.477545 -1.671314 -2.222315 -2.498157 -7.545467 -0.145183 0.007824 -0.311391 0.000000 -0.000000 -0.000000 -8.421046 -1.527485 -8.444219 10.988997 9.456351 0.845430 -5.767807 -0.825209 6.902710 -1.288159 -0.027253 0.150335 0.000000 -0.000002 -0.000000 
1.012614 96.174110 -2.155109 2.996643 -29.008322 1.017642 7.837252 -0.327079 -2.470621 1.099094 -0.876636 2.383003 0.000000 0.000000 0.000000 1.108488 -0.585939 2.445761 -3.844999 18.060113 -6.523146 -6.313229 13.058515 0.301025 0.000000 -0.000000 -0.000000 -0.070035 -8.744143 -0.065998 0.000000 0.000000 0.000000 -54.884340 0.118810 -41.197601 11.633522 -65.908880 13.201903 -50.544359 12.176060 4.648544 17.563615 -5.694010 -12.929228 10.852336 26.148382 8.654087 20.924894 51.116422 0.219808 0.000003 -0.000000 -0.000001 13.978248 1.203593 -55.006037 0.372689 1.163876 -65.441880 1.986567 2.154426 -57.665115 0.000000 -0.000000 0.000001 7.502549 1.175423 -63.755267 1.809502 1.478258 -64.569849 0.130995 -0.903799 -43.270778 0.000001 0.000000 0.000000 8.574326 2.179115 -75.149006 -0.208028 1.014711 -57.856804 0.433175 1.760593 -53.580891 -0.000000 -0.000001 0.000000 10.030071 13.637034 -84.750244 0.878843 0.065139 -64.595503 1.137600 1.262743 -55.016204 -0.000000 0.000000 -0.000002 4.841097 7.792200 5.599185 0.000000 0.000000 0.000000 -0.876150 -2.203269 61.799743 11.304720 18.977109 -3.997581 -0.474804 6.723931 5.694321 15.788508 -2.734468 -17.205889 -2.198312 -31.113547 7.361212 -6.563761 -4.145949 2.404848 -0.000001 -0.000003 -0.000001 2.371241 -3.658865 8.486756 -2.131698 -2.469819 18.672180 -1.937596 -4.791117 14.170593 0.000001 0.000001 -0.000003 -1.983648 -5.667154 13.658559 0.267036 -5.081392 26.987157 -0.669520 -1.182131 16.124799 0.000000 -0.000000 0.000004 -3.231401 -8.564183 11.751469 4.036757 -4.043072 33.257199 2.103009 -3.154941 15.587796 -0.000001 0.000000 0.000000 -6.483208 -11.360896 23.256463 10.728495 -2.555676 34.821233 6.410106 -3.094545 15.311575 0.000000 -0.000000 0.000002 -13.839486 18.256758 13.074702 14.407683 11.475684 -1.674666 -2.235313 -2.495739 -7.548825 -0.145179 0.007826 -0.311390 0.000000 0.000000 -0.000000 -8.490537 -1.527830 -8.432615 11.000471 9.464015 0.843619 -5.786113 -0.815245 6.890080 -1.278398 -0.027715 0.171745 -0.000000 -0.000000 -0.000000 
0.993395 96.167747 -2.138187 3.094925 -29.013250 1.061120 7.837386 -0.323985 -2.471695 1.098787 -0.869316 2.381754 0.000000 0.000000 0.000000 1.110465 -0.579790 2.444748 -3.800853 18.130556 -6.587805 -6.340685 13.102958 0.312260 0.000000 0.000000 -0.000000 -0.072285 -8.728847 -0.064795 0.000000 0.000000 0.000000 -54.827564 0.180460 -41.050420 11.670563 -66.019106 13.220146 -50.602925 12.088228 4.574798 17.563616 -5.694010 -12.929221 10.852336 26.148379 8.654089 20.924889 51.116422 0.219808 0.000003 -0.000000 -0.000001 13.978245 1.203594 -55.006041 0.372687 1.163877 -65.441873 1.986567 2.154424 -57.665122 0.000000 0.000002 -0.000001 7.502547 1.175422 -63.755267 1.809503 1.478259 -64.569856 0.130996 -0.903800 -43.270785 0.000000 0.000000 0.000000 8.574325 2.179115 -75.149006 -0.208029 1.014712 -57.856804 0.433175 1.760595 -53.580887 0.000000 0.000001 0.000001 10.030069 13.637034 -84.750244 0.878843 0.065139 -64.595496 1.137600 1.262743 -55.016207 0.000000 -0.000000 0.000001 4.839190 7.844303 5.594992 0.000000 0.000000 0.000000 -0.848534 -2.241859 61.787291 11.331119 18.903920 -3.971959 -0.529488 6.824014 5.581371 15.788506 -2.734468 -17.205890 -2.198311 -31.113547 7.361220 -6.563761 -4.145947 2.404845 -0.000001 -0.000006 -0.000001 2.371250 -3.658862 8.486759 -2.131696 -2.469827 18.672212 -1.937609 -4.791118 14.170595 0.000001 0.000000 0.000000 -1.983639 -5.667157 13.658586 0.267036 -5.081399 26.987187 -0.669519 -1.182126 16.124803 0.000000 0.000001 -0.000000 -3.231391 -8.564184 11.751481 4.036757 -4.043066 33.257202 2.103013 -3.154939 15.587817 0.000001 -0.000000 0.000000 -6.483205 -11.360899 23.256463 10.728495 -2.555673 34.821240 6.410094 -3.094545 15.311566 -0.000000 -0.000000 -0.000001 -13.920457 18.213843 13.096048 14.424955 11.477737 -1.680433 -2.247314 -2.478071 -7.573136 -0.145184 0.007825 -0.311392 0.000000 -0.000000 0.000000 -8.588994 -1.536284 -8.425293 11.026501 9.494102 0.835551 -5.797711 -0.808099 6.882291 -1.278725 -0.027698 0.171029 -0.000000 -0.000000 -0.000000 
0.974573 96.157623 -2.122924 3.192371 -29.010552 1.102416 7.832519 -0.311602 -2.468294 1.104963 -0.859948 2.374747 0.000000 0.000000 0.000000 1.116788 -0.570566 2.437566 -3.760156 18.197029 -6.652756 -6.378134 13.164526 0.327757 -0.000000 0.000000 0.000000 -0.091586 -8.709464 -0.063618 0.000000 0.000000 0.000000 -54.824023 0.285196 -40.971525 11.705481 -66.122563 13.258900 -50.558501 12.058928 4.470706 17.563616 -5.694010 -12.929225 10.852336 26.148382 8.654087 20.924889 51.116425 0.219809 -0.000002 0.000004 -0.000001 13.978247 1.203593 -55.006041 0.372689 1.163877 -65.441880 1.986568 2.154425 -57.665129 0.000000 0.000001 -0.000000 7.502550 1.175422 -63.755267 1.809504 1.478259 -64.569849 0.130996 -0.903799 -43.270789 0.000001 0.000001 0.000000 8.574326 2.179115 -75.149006 -0.208030 1.014711 -57.856804 0.433176 1.760594 -53.580887 0.000000 -0.000000 0.000000 10.030071 13.637034 -84.750244 0.878843 0.065139 -64.595496 1.137600 1.262743 -55.016200 0.000000 -0.000000 -0.000002 4.835601 7.900895 5.599403 0.000000 0.000000 0.000000 -0.826521 -2.297779 61.813752 11.287209 18.781847 -4.000384 -0.510026 6.876277 5.554245 15.788508 -2.734468 -17.205882 -2.198311 -31.113544 7.361214 -6.563758 -4.145952 2.404846 0.000001 -0.000002 -0.000002 2.371244 -3.658863 8.486740 -2.131702 -2.469821 18.672195 -1.937591 -4.791125 14.170593 0.000001 0.000000 -0.000001 -1.983647 -5.667149 13.658573 0.267044 -5.081405 26.987155 -0.669519 -1.182124 16.124815 0.000000 0.000000 -0.000004 -3.231381 -8.564180 11.751480 4.036735 -4.043069 33.257181 2.103021 -3.154943 15.587827 0.000000 -0.000000 0.000001 -6.483201 -11.360890 23.256458 10.728488 -2.555673 34.821261 6.410094 -3.094548 15.311565 0.000000 -0.000000 0.000001 -14.004546 18.151216 13.116886 14.462562 11.511105 -1.692540 -2.269419 -2.460657 -7.592644 -0.141176 0.007805 -0.311391 0.000000 -0.000000 0.000000 -8.678485 -1.553966 -8.411038 11.057586 9.482467 0.830568 -5.823370 -0.806922 6.877936 -1.278233 -0.028010 0.184507 0.000000 0.000001 0.000000 
